# xmcd
#
# Track frame offsets:
# 150
# 16213
# 31209
# 47335
# 61457
# 79159
# 103918
# 117101
# 131990
# 148824
# 164641
# 176875
# 189486
# 203068
#
# Disc length: 2969 seconds
#
#
# Revision: 0
# Processed by: cddbd v1.5.1PL2 Copyright (c) Steve Scherf et al.
# Submitted via: FreeRIP 2.945 
#
DISCID=c90b970e
DTITLE=Sérgio Reis - Nossas Canções
DYEAR=2002
DGENRE=Country
TTITLE0=O Tempo Vai Apagar
TTITLE1=Como Vai Você
TTITLE2=Com Muito Amor e Carinho
TTITLE3=Outra Vez
TTITLE4=Eu Daria a Minha Vida
TTITLE5=O Homem Bom
TTITLE6=A Namorada
TTITLE7=Nossa Canção
TTITLE8=Vivendo por Viver
TTITLE9=Abandono
TTITLE10=Custe o que Custar
TTITLE11=Não Precisas Chorar
TTITLE12=Se Eu Partir
TTITLE13=De Coração para Coração
EXTD=
EXTT0=
EXTT1=
EXTT2=
EXTT3=
EXTT4=
EXTT5=
EXTT6=
EXTT7=
EXTT8=
EXTT9=
EXTT10=
EXTT11=
EXTT12=
EXTT13=
PLAYORDER=
